# xmcd
#
# Track frame offsets: 
#        150
#        15443
#        32115
#        46776
#        63791
#        80268
#        92672
#        106789
#        125057
#        142038
#        157399
#        173645
#        190397
#        206783
#
# Disc length: 2912 seconds
#
# Revision: 1
# Processed by: cddbd v1.5.2PL0 Copyright (c) Steve Scherf et al.
# Submitted via: ExactAudioCopy v1.3
#
DISCID=ba0b5e0e
DTITLE=Mighty Sam McClain - Too Much Jesus (Not Enough Whiskey)
DYEAR=2008
DGENRE=Blues
TTITLE0=I Wish You Well
TTITLE1=Missing You
TTITLE2=Can You Feel It?
TTITLE3=Feel So Good - Feel So Right
TTITLE4=Tears
TTITLE5=Stand Up!
TTITLE6=Real Thing
TTITLE7=Use Me
TTITLE8=Rock My Soul
TTITLE9=Hey Baby
TTITLE10=So Into You
TTITLE11=Wake Up Call
TTITLE12=Too Much Jesus (Not Enough Whiskey)
TTITLE13=Dance
EXTD=
EXTT0=
EXTT1=
EXTT2=
EXTT3=
EXTT4=
EXTT5=
EXTT6=
EXTT7=
EXTT8=
EXTT9=
EXTT10=
EXTT11=
EXTT12=
EXTT13=
PLAYORDER=
